<?xml version="1.0" standalone="no"?>
<!DOCTYPE svg PUBLIC "-//W3C//DTD SVG 20010904//EN"
 "http://www.w3.org/TR/2001/REC-SVG-20010904/DTD/svg10.dtd">
<svg version="1.0" xmlns="http://www.w3.org/2000/svg"
 width="500.000000pt" height="500.000000pt" viewBox="0 0 500.000000 500.000000"
 preserveAspectRatio="xMidYMid meet">

<g transform="translate(0.000000,500.000000) scale(0.100000,-0.100000)"
fill="#000000" stroke="none">
<path d="M2498 4303 c7 -3 16 -2 19 1 4 3 -2 6 -13 5 -11 0 -14 -3 -6 -6z"/>
<path d="M2338 4293 c12 -2 32 -2 45 0 12 2 2 4 -23 4 -25 0 -35 -2 -22 -4z"/>
<path d="M2628 4293 c12 -2 32 -2 45 0 12 2 2 4 -23 4 -25 0 -35 -2 -22 -4z"/>
<path d="M2160 4270 c-47 -10 -76 -18 -65 -18 11 0 63 8 115 18 52 10 82 18
65 18 -16 0 -68 -8 -115 -18z"/>
<path d="M2798 4273 c6 -2 18 -2 25 0 6 3 1 5 -13 5 -14 0 -19 -2 -12 -5z"/>
<path d="M2858 4263 c7 -3 16 -2 19 1 4 3 -2 6 -13 5 -11 0 -14 -3 -6 -6z"/>
<path d="M2898 4253 c7 -3 16 -2 19 1 4 3 -2 6 -13 5 -11 0 -14 -3 -6 -6z"/>
<path d="M1940 4215 c-141 -47 -364 -160 -480 -242 -122 -88 -314 -274 -400
-388 -37 -49 -93 -134 -125 -187 l-58 -98 -91 -2 -91 -1 90 -7 c103 -7 112 -5
120 20 11 34 118 204 179 284 94 123 160 190 297 300 176 141 358 239 597 322
54 18 90 33 82 33 -8 0 -62 -15 -120 -34z"/>
<path d="M2510 4120 c19 -5 55 -11 80 -14 l45 -5 -35 13 c-19 8 -55 14 -80 14
l-45 0 35 -8z"/>
<path d="M2760 4126 c0 -3 9 -10 20 -16 11 -6 20 -8 20 -6 0 3 -9 10 -20 16
-11 6 -20 8 -20 6z"/>
<path d="M2326 3990 c-77 -16 -144 -32 -150 -34 -16 -8 84 4 119 14 17 5 63
14 102 20 40 7 75 16 79 21 7 12 11 12 -150 -21z"/>
<path d="M2520 3956 c0 -18 31 -21 65 -6 l20 9 -20 0 c-11 1 -30 4 -42 7 -17
5 -23 2 -23 -10z"/>
<path d="M2085 3935 c-38 -12 -39 -13 -10 -14 17 0 44 6 60 14 40 18 5 19 -50
0z"/>
<path d="M3033 3870 c0 -25 2 -35 4 -22 2 12 2 32 0 45 -2 12 -4 2 -4 -23z"/>
<path d="M2240 3870 l-45 -7 53 -1 c29 -1 52 2 52 8 0 6 -3 9 -7 8 -5 0 -28
-4 -53 -8z"/>
<path d="M2338 3873 c17 -2 47 -2 65 0 17 2 3 4 -33 4 -36 0 -50 -2 -32 -4z"/>
<path d="M2720 3861 c0 -6 4 -13 10 -16 6 -3 7 1 4 9 -7 18 -14 21 -14 7z"/>
<path d="M2143 3853 c9 -2 25 -2 35 0 9 3 1 5 -18 5 -19 0 -27 -2 -17 -5z"/>
<path d="M2065 3840 c-8 -13 15 -13 35 0 12 8 11 10 -7 10 -12 0 -25 -4 -28
-10z"/>
<path d="M2185 3794 c-27 -8 -89 -16 -137 -17 -48 -1 -80 -5 -70 -9 44 -17
214 1 249 28 22 16 21 16 -42 -2z"/>
<path d="M2395 3802 c31 -14 83 -24 65 -13 -8 5 -31 11 -50 15 -24 4 -28 3
-15 -2z"/>
<path d="M3058 3723 c7 -3 16 -2 19 1 4 3 -2 6 -13 5 -11 0 -14 -3 -6 -6z"/>
<path d="M3000 3645 c-16 -9 -19 -14 -9 -15 8 0 20 5 26 11 11 11 82 8 118 -5
13 -5 11 -2 -5 8 -31 19 -97 20 -130 1z"/>
<path d="M2839 3574 c-37 -39 -133 -100 -197 -125 -31 -12 -88 -25 -127 -30
l-70 -7 70 2 c50 2 90 11 140 31 87 35 190 102 204 133 14 28 10 28 -20 -4z"/>
<path d="M2900 3544 c59 -8 138 -8 133 -1 -2 4 -39 6 -81 6 -42 -1 -66 -3 -52
-5z"/>
<path d="M2120 3525 c14 -8 30 -14 35 -14 6 0 -1 6 -15 14 -14 8 -29 14 -35
14 -5 0 1 -6 15 -14z"/>
<path d="M3180 3534 c0 -6 3 -14 8 -18 4 -4 13 -22 20 -39 l12 -32 -5 35 c-5
32 -35 78 -35 54z"/>
<path d="M3272 3510 c0 -14 2 -19 5 -12 2 6 2 18 0 25 -3 6 -5 1 -5 -13z"/>
<path d="M2188 3498 c5 -5 16 -8 23 -6 8 3 3 7 -10 11 -17 4 -21 3 -13 -5z"/>
<path d="M2100 3470 c20 -13 57 -13 65 0 4 6 -11 10 -37 10 -31 0 -39 -3 -28
-10z"/>
<path d="M3270 3460 c0 -12 -7 -35 -15 -53 l-16 -32 21 24 c17 20 29 81 15 81
-3 0 -5 -9 -5 -20z"/>
<path d="M2050 3459 c0 -5 5 -7 10 -4 6 3 10 8 10 11 0 2 -4 4 -10 4 -5 0 -10
-5 -10 -11z"/>
<path d="M3220 3403 c0 -21 -3 -49 -6 -63 -4 -18 -3 -21 4 -10 16 25 25 97 13
105 -7 4 -11 -7 -11 -32z"/>
<path d="M2080 3390 c-18 -19 -38 -57 -48 -91 l-17 -58 -45 -4 -45 -3 48 -2
c31 -1 49 2 51 11 19 65 44 117 69 140 16 15 27 30 24 34 -4 3 -20 -9 -37 -27z"/>
<path d="M3196 3278 c-8 -35 -11 -37 -50 -41 l-41 -4 43 -1 c38 -2 44 1 53 25
5 14 8 34 6 42 -2 9 -7 -1 -11 -21z"/>
<path d="M4143 3293 c8 -8 177 -7 185 1 3 3 -39 6 -93 6 -54 0 -95 -3 -92 -7z"/>
<path d="M4044 3110 c-6 -6 -444 -11 -1209 -13 l-1200 -2 1207 -3 c1144 -2
1239 0 1216 23 -2 3 -9 0 -14 -5z"/>
<path d="M1115 3100 c-89 -4 -25 -6 175 -6 301 0 329 3 80 8 -64 2 -179 1
-255 -2z"/>
<path d="M2512 2865 l1 -130 7 115 c3 63 3 122 -2 130 -4 8 -7 -43 -6 -115z"/>
<path d="M3182 2938 l-2 -58 -105 0 -105 0 1 -72 2 -73 7 56 c4 31 10 61 14
68 5 7 40 11 97 11 102 0 102 1 96 76 l-3 49 -2 -57z"/>
<path d="M1532 2678 l-2 -307 -45 2 c-25 1 -45 -1 -45 -5 0 -14 90 -9 95 5 3
7 4 147 2 312 l-2 300 -3 -307z"/>
<path d="M2353 2935 c0 -27 2 -38 4 -22 2 15 2 37 0 50 -2 12 -4 0 -4 -28z"/>
<path d="M2752 2677 c-1 -170 -5 -306 -9 -304 -5 3 -28 1 -53 -3 l-45 -7 53
-2 c34 -1 54 3 57 12 3 7 4 147 2 312 l-2 300 -3 -308z"/>
<path d="M3364 2735 c0 -137 2 -195 3 -128 2 67 2 179 0 250 -1 70 -3 16 -3
-122z"/>
<path d="M3602 2710 c-2 -304 -3 -310 -65 -328 -17 -6 -73 -9 -124 -8 -51 1
-87 -2 -80 -6 20 -13 200 -9 227 5 48 24 51 45 47 339 l-2 273 -3 -275z"/>
<path d="M1892 2940 c0 -14 2 -19 5 -12 2 6 2 18 0 25 -3 6 -5 1 -5 -13z"/>
<path d="M4052 2858 l-2 -68 -56 0 c-34 0 -53 -4 -49 -10 10 -16 105 -12 111
4 3 7 3 42 1 77 l-3 64 -2 -67z"/>
<path d="M1901 2884 c0 -11 3 -14 6 -6 3 7 2 16 -1 19 -3 4 -6 -2 -5 -13z"/>
<path d="M1161 2874 c0 -11 3 -14 6 -6 3 7 2 16 -1 19 -3 4 -6 -2 -5 -13z"/>
<path d="M2023 2873 c15 -2 39 -2 55 0 15 2 2 4 -28 4 -30 0 -43 -2 -27 -4z"/>
<path d="M2230 2630 l0 -250 -25 -6 c-14 -3 -37 -4 -50 -2 -14 3 -25 1 -25 -3
0 -14 84 -11 98 3 9 9 12 79 12 255 l0 242 58 4 57 3 -62 2 -63 2 0 -250z"/>
<path d="M3812 2818 l1 -63 6 55 6 55 55 6 55 6 -62 1 -63 2 2 -62z"/>
<path d="M1793 2810 c0 -25 2 -35 4 -22 2 12 2 32 0 45 -2 12 -4 2 -4 -23z"/>
<path d="M1181 2784 c0 -11 3 -14 6 -6 3 7 2 16 -1 19 -3 4 -6 -2 -5 -13z"/>
<path d="M1191 2744 c0 -11 3 -14 6 -6 3 7 2 16 -1 19 -3 4 -6 -2 -5 -13z"/>
<path d="M1364 2570 l-40 -195 -62 -1 c-34 0 -65 -3 -68 -7 -4 -4 23 -7 59 -7
58 0 68 3 80 23 16 26 80 337 75 364 -2 10 -22 -70 -44 -177z"/>
<path d="M1781 2735 c-1 -16 -4 -50 -7 -75 -3 -38 -2 -41 6 -20 6 13 9 47 7
75 -2 28 -4 37 -6 20z"/>
<path d="M3143 2675 c0 -27 2 -38 4 -22 2 15 2 37 0 50 -2 12 -4 0 -4 -28z"/>
<path d="M1201 2694 c0 -11 3 -14 6 -6 3 7 2 16 -1 19 -3 4 -6 -2 -5 -13z"/>
<path d="M1211 2654 c0 -11 3 -14 6 -6 3 7 2 16 -1 19 -3 4 -6 -2 -5 -13z"/>
<path d="M1221 2614 c0 -11 3 -14 6 -6 3 7 2 16 -1 19 -3 4 -6 -2 -5 -13z"/>
<path d="M2510 2505 c0 -139 6 -128 -75 -139 -16 -2 -5 -3 25 -2 l55 1 2 105
c4 149 4 148 61 153 46 3 46 3 -10 5 l-58 2 0 -125z"/>
<path d="M2970 2573 c0 -42 3 -54 10 -43 6 8 8 27 5 41 -8 36 10 47 85 52 63
3 62 3 -17 5 l-83 2 0 -57z"/>
<path d="M3838 2623 c12 -2 30 -2 40 0 9 3 -1 5 -23 4 -22 0 -30 -2 -17 -4z"/>
<path d="M4052 2525 c-3 -140 -20 -153 -199 -151 -61 1 -106 -2 -100 -6 20
-13 230 -9 257 5 40 20 51 56 47 154 l-3 88 -2 -90z"/>
<path d="M1232 2570 c0 -14 2 -19 5 -12 2 6 2 18 0 25 -3 6 -5 1 -5 -13z"/>
<path d="M3813 2530 c0 -25 2 -35 4 -22 2 12 2 32 0 45 -2 12 -4 2 -4 -23z"/>
<path d="M1093 2490 c0 -30 2 -43 4 -27 2 15 2 39 0 55 -2 15 -4 2 -4 -28z"/>
<path d="M1736 2458 c-4 -24 -9 -54 -12 -68 -4 -19 -3 -22 5 -10 5 8 13 33 17
55 3 22 11 46 16 53 8 8 6 12 -4 12 -10 0 -18 -14 -22 -42z"/>
<path d="M3180 2430 l-5 -55 -147 -1 c-82 0 -151 -4 -155 -7 -3 -4 64 -7 151
-7 176 0 169 -3 164 76 l-4 49 -4 -55z"/>
<path d="M1996 2402 l6 -34 -46 3 c-25 2 -48 0 -52 -4 -4 -4 16 -7 45 -7 57 0
68 11 51 51 -9 21 -9 20 -4 -9z"/>
<path d="M990 2370 c0 -5 20 -10 44 -10 25 0 48 5 51 10 4 6 -13 10 -44 10
-28 0 -51 -4 -51 -10z"/>
<path d="M1650 2370 c-34 -7 -34 -7 13 -9 30 0 46 3 42 9 -3 6 -9 9 -13 9 -4
-1 -23 -5 -42 -9z"/>
<path d="M4030 2233 c-24 -12 -24 -13 -3 -13 12 0 25 5 28 11 11 16 2 17 -25
2z"/>
<path d="M988 2223 c7 -3 16 -2 19 1 4 3 -2 6 -13 5 -11 0 -14 -3 -6 -6z"/>
<path d="M3833 2223 c26 -2 68 -2 95 0 26 2 4 3 -48 3 -52 0 -74 -1 -47 -3z"/>
<path d="M2122 2110 c0 -19 2 -27 5 -17 2 9 2 25 0 35 -3 9 -5 1 -5 -18z"/>
<path d="M3090 2110 l0 -30 -60 0 -60 0 2 -77 2 -78 5 70 6 70 58 3 57 3 0 34
c0 19 -2 35 -5 35 -3 0 -5 -13 -5 -30z"/>
<path d="M3270 2080 c8 -5 20 -10 25 -10 6 0 3 5 -5 10 -8 5 -19 10 -25 10 -5
0 -3 -5 5 -10z"/>
<path d="M3398 2024 c4 -56 1 -70 -17 -95 -12 -17 -21 -35 -19 -41 2 -6 14 4
26 24 16 26 22 51 22 94 0 33 -4 65 -8 71 -4 7 -6 -17 -4 -53z"/>
<path d="M1715 2070 c3 -5 8 -10 11 -10 2 0 4 5 4 10 0 6 -5 10 -11 10 -5 0
-7 -4 -4 -10z"/>
<path d="M2326 2064 c-9 -24 -2 -26 12 -4 7 11 8 20 3 20 -5 0 -12 -7 -15 -16z"/>
<path d="M2657 2073 c-4 -3 -6 -49 -5 -102 l2 -96 5 100 c7 111 7 108 -2 98z"/>
<path d="M3230 2069 c0 -5 5 -7 10 -4 6 3 10 8 10 11 0 2 -4 4 -10 4 -5 0 -10
-5 -10 -11z"/>
<path d="M1882 2050 c0 -14 2 -19 5 -12 2 6 2 18 0 25 -3 6 -5 1 -5 -13z"/>
<path d="M2132 2040 c0 -19 2 -27 5 -17 2 9 2 25 0 35 -3 9 -5 1 -5 -18z"/>
<path d="M2821 1995 c-1 -51 -7 -79 -22 -104 -25 -41 -19 -53 7 -14 18 28 31
130 21 169 -2 10 -5 -12 -6 -51z"/>
<path d="M2502 1981 c-1 -48 -8 -75 -27 -106 -13 -23 -22 -45 -18 -48 3 -4 17
14 30 39 20 37 23 56 20 112 l-3 67 -2 -64z"/>
<path d="M1722 2000 c0 -19 2 -27 5 -17 2 9 2 25 0 35 -3 9 -5 1 -5 -18z"/>
<path d="M1882 1979 c-1 -29 -9 -56 -22 -72 -11 -14 -16 -28 -12 -31 18 -11
44 58 40 104 l-5 45 -1 -46z"/>
<path d="M2041 1902 c-7 -63 -11 -116 -8 -118 7 -7 30 190 25 212 -2 11 -10
-32 -17 -94z"/>
<path d="M2142 1965 c0 -16 2 -22 5 -12 2 9 2 23 0 30 -3 6 -5 -1 -5 -18z"/>
<path d="M2150 1917 c0 -9 11 -94 25 -189 14 -95 25 -176 25 -180 0 -4 -17 -8
-37 -8 -28 0 -34 -3 -23 -10 35 -22 76 -10 72 21 -1 4 -13 89 -27 190 -24 167
-35 222 -35 176z"/>
<path d="M1277 1858 c-41 -24 -76 -38 -88 -35 -10 3 -17 1 -13 -4 11 -18 47
-8 108 28 72 43 71 42 65 47 -2 2 -35 -14 -72 -36z"/>
<path d="M3890 1849 c-36 -21 -57 -39 -48 -39 15 0 138 68 138 76 0 11 -32 -2
-90 -37z"/>
<path d="M3082 1855 c0 -16 2 -22 5 -12 2 9 2 23 0 30 -3 6 -5 -1 -5 -18z"/>
<path d="M1720 1849 c0 -5 5 -7 10 -4 6 3 10 8 10 11 0 2 -4 4 -10 4 -5 0 -10
-5 -10 -11z"/>
<path d="M3230 1829 c0 -5 5 -7 10 -4 6 3 10 8 10 11 0 2 -4 4 -10 4 -5 0 -10
-5 -10 -11z"/>
<path d="M3023 1823 c9 -2 25 -2 35 0 9 3 1 5 -18 5 -19 0 -27 -2 -17 -5z"/>
<path d="M2979 1783 c-2 -56 2 -147 6 -151 2 -2 5 39 7 92 2 53 0 96 -4 96 -5
0 -9 -17 -9 -37z"/>
<path d="M3398 1728 l-3 -92 -35 -10 c-20 -5 -28 -11 -19 -13 8 -2 28 1 42 6
27 10 27 12 27 106 0 52 -2 95 -5 95 -2 0 -6 -41 -7 -92z"/>
<path d="M1718 1786 c-3 -14 -1 -31 3 -38 6 -8 9 1 9 25 0 42 -6 48 -12 13z"/>
<path d="M1890 1736 c0 -65 -3 -79 -24 -103 -21 -25 -31 -28 -81 -27 -42 0
-51 -2 -34 -8 13 -5 41 -8 63 -6 61 5 86 47 86 144 0 41 -2 74 -5 74 -3 0 -5
-33 -5 -74z"/>
<path d="M2651 1748 c0 -52 2 -59 10 -38 6 13 8 34 5 45 -7 28 4 42 39 48 24
3 22 4 -12 6 l-43 1 1 -62z"/>
<path d="M2326 1784 c-5 -13 -3 -14 6 -6 7 5 24 12 38 15 22 4 21 4 -6 6 -21
1 -34 -5 -38 -15z"/>
<path d="M2828 1712 c2 -73 0 -92 -17 -119 -30 -48 -63 -65 -149 -74 l-77 -8
82 3 c133 4 173 46 173 181 0 44 -4 85 -8 92 -4 6 -6 -28 -4 -75z"/>
<path d="M2501 1700 c-1 -30 -2 -83 -1 -117 l1 -62 -38 -4 -38 -4 38 -1 c23
-1 40 3 43 11 2 7 3 62 1 123 -1 60 -4 84 -6 54z"/>
<path d="M3232 1658 c-2 -63 -4 -68 -24 -68 -13 0 -30 -5 -38 -10 -12 -8 -10
-10 11 -10 49 0 60 19 56 90 l-3 65 -2 -67z"/>
<path d="M2005 1645 c-4 -36 -5 -68 -3 -71 3 -2 8 22 12 55 5 41 12 64 24 70
15 9 14 10 -5 11 -19 0 -22 -7 -28 -65z"/>
<path d="M2322 1690 c0 -14 2 -19 5 -12 2 6 2 18 0 25 -3 6 -5 1 -5 -13z"/>
<path d="M2652 1655 c0 -16 2 -22 5 -12 2 9 2 23 0 30 -3 6 -5 -1 -5 -18z"/>
<path d="M1665 1620 c11 -5 29 -8 40 -8 16 0 15 2 -5 8 -34 11 -60 11 -35 0z"/>
<path d="M3092 1604 c3 -27 0 -30 -46 -41 -28 -7 -67 -13 -89 -15 -21 -1 -41
-6 -44 -11 -3 -5 7 -7 23 -4 16 3 56 9 89 12 33 4 66 12 73 17 15 13 16 54 1
64 -7 4 -10 -4 -7 -22z"/>
<path d="M1945 1560 c11 -5 27 -9 35 -9 9 0 8 4 -5 9 -11 5 -27 9 -35 9 -9 0
-8 -4 5 -9z"/>
<path d="M2273 1523 c9 -2 23 -2 30 0 6 3 -1 5 -18 5 -16 0 -22 -2 -12 -5z"/>
<path d="M3735 1440 c-16 -16 -25 -30 -20 -30 5 0 -1 -7 -13 -16 -12 -8 -20
-20 -17 -25 4 -5 2 -9 -2 -9 -5 0 -18 -7 -29 -16 -17 -14 -17 -15 -1 -10 11 3
16 2 12 -4 -3 -6 -12 -10 -19 -10 -8 0 -24 -9 -37 -19 l-24 -20 24 2 c27 2
112 91 142 148 11 22 18 39 16 39 -2 0 -16 -13 -32 -30z"/>
<path d="M1307 1446 c-3 -8 2 -20 11 -27 14 -11 15 -11 5 0 -6 7 -9 20 -6 27
3 8 3 14 0 14 -3 0 -7 -6 -10 -14z"/>
<path d="M4171 1393 c-54 -88 -179 -239 -282 -338 -205 -198 -450 -350 -719
-446 -127 -46 -118 -51 12 -8 350 116 707 384 947 708 50 68 91 128 91 132 0
21 -18 4 -49 -48z"/>
<path d="M2862 1403 c-86 -83 -285 -294 -280 -298 2 -3 75 69 162 160 87 91
155 165 152 165 -3 0 -19 -12 -34 -27z"/>
<path d="M1335 1380 c3 -5 8 -10 11 -10 2 0 4 5 4 10 0 6 -5 10 -11 10 -5 0
-7 -4 -4 -10z"/>
<path d="M1420 1295 c7 -9 15 -13 17 -11 7 7 -7 26 -19 26 -6 0 -6 -6 2 -15z"/>
<path d="M1450 1296 c0 -2 8 -10 18 -17 15 -13 16 -12 3 4 -13 16 -21 21 -21
13z"/>
<path d="M3564 1260 c-21 -8 -42 -30 -29 -30 10 0 65 30 65 35 0 7 -11 5 -36
-5z"/>
<path d="M1461 1257 c2 -1 13 -9 24 -17 19 -14 19 -14 6 3 -7 9 -18 17 -24 17
-6 0 -8 -1 -6 -3z"/>
<path d="M1510 1245 c7 -8 17 -15 22 -15 6 0 5 7 -2 15 -7 8 -17 15 -22 15 -6
0 -5 -7 2 -15z"/>
<path d="M1536 1201 c31 -19 88 -26 78 -9 -4 5 -14 8 -23 5 -10 -2 -26 2 -36
9 -10 8 -26 14 -34 14 -9 0 -3 -8 15 -19z"/>
<path d="M3477 1205 c-11 -7 -25 -11 -32 -9 -7 3 -15 1 -19 -4 -9 -14 57 -6
89 11 30 17 30 17 5 17 -14 -1 -33 -7 -43 -15z"/>
<path d="M1662 1162 c11 -14 10 -15 -7 -8 -11 5 -31 10 -45 12 -17 2 -19 1 -5
-2 11 -4 25 -10 32 -16 13 -10 65 0 58 12 -3 4 -14 10 -25 13 -18 5 -19 3 -8
-11z"/>
<path d="M3339 1160 c-24 -15 58 -20 86 -6 28 15 28 15 -23 14 -28 -1 -56 -5
-63 -8z"/>
<path d="M2079 1158 c-6 -11 -3 -88 3 -88 4 0 8 20 8 45 0 37 -5 55 -11 43z"/>
<path d="M1744 1135 c27 -21 53 -20 36 0 -7 8 -22 15 -34 15 -21 -1 -21 -1 -2
-15z"/>
<path d="M3058 1139 c-20 -11 -26 -79 -7 -79 7 0 9 11 6 30 -5 21 -3 30 6 30
7 0 22 7 33 15 19 14 19 14 -1 14 -11 0 -28 -4 -37 -10z"/>
<path d="M3254 1135 c-19 -14 -19 -14 3 -15 12 0 23 -3 26 -7 2 -5 2 -2 1 5
-2 6 1 12 6 12 6 0 10 5 10 10 0 15 -23 12 -46 -5z"/>
<path d="M1675 1124 c-22 -10 -25 -13 -10 -13 28 1 61 14 49 21 -5 3 -22 -1
-39 -8z"/>
<path d="M1880 1125 c7 -8 24 -15 39 -15 25 1 25 1 7 15 -11 8 -29 15 -39 15
-16 0 -17 -3 -7 -15z"/>
<path d="M1950 1130 c20 -13 50 -13 50 0 0 6 -15 10 -32 10 -25 0 -29 -3 -18
-10z"/>
<path d="M3104 1125 c-19 -14 -19 -14 3 -15 28 0 53 10 53 21 0 14 -34 11 -56
-6z"/>
<path d="M3184 1125 c-19 -14 -19 -14 2 -15 12 0 27 7 34 15 17 20 -9 21 -36
0z"/>
<path d="M3320 1131 c0 -15 71 -24 84 -11 8 9 6 11 -10 6 -12 -4 -33 -2 -48 3
-14 6 -26 7 -26 2z"/>
<path d="M1825 1120 c3 -5 15 -10 26 -10 11 0 17 5 14 10 -3 6 -15 10 -26 10
-11 0 -17 -4 -14 -10z"/>
<path d="M2974 1116 c-3 -8 -4 -23 -2 -32 2 -14 6 -12 15 9 8 16 9 29 3 32 -6
4 -13 -1 -16 -9z"/>
<path d="M2010 1105 c0 -8 5 -15 10 -15 6 0 10 7 10 15 0 8 -4 15 -10 15 -5 0
-10 -7 -10 -15z"/>
<path d="M2506 1111 c-4 -7 -5 -15 -2 -18 9 -9 19 4 14 18 -4 11 -6 11 -12 0z"/>
<path d="M1775 1090 c-10 -11 -14 -20 -8 -20 5 0 18 9 28 20 10 11 14 20 8 20
-5 0 -18 -9 -28 -20z"/>
<path d="M1870 1091 c0 -5 -8 -17 -17 -26 -16 -16 -15 -17 2 -14 19 4 42 49
25 49 -6 0 -10 -4 -10 -9z"/>
<path d="M1947 1088 c-15 -39 -16 -48 -6 -48 13 0 22 24 16 47 -4 17 -4 17
-10 1z"/>
<path d="M3113 1092 c-8 -5 -9 -13 -3 -22 11 -17 23 -8 18 14 -2 9 -8 12 -15
8z"/>
<path d="M3190 1091 c0 -6 4 -12 8 -15 5 -3 9 1 9 9 0 8 -4 15 -9 15 -4 0 -8
-4 -8 -9z"/>
<path d="M2358 989 c-96 -57 -118 -74 -118 -93 0 -36 -44 -71 -90 -71 -21 0
-33 -3 -27 -7 42 -26 112 12 132 73 6 18 18 36 26 41 8 4 54 31 103 60 49 29
108 55 130 59 l41 6 -40 1 c-33 1 -62 -12 -157 -69z"/>
<path d="M2111 964 c-12 -16 -20 -40 -20 -58 l2 -31 4 30 c3 17 16 42 31 58
14 15 21 27 15 27 -7 0 -21 -12 -32 -26z"/>
<path d="M2834 966 c-8 -14 -14 -35 -11 -48 4 -22 4 -21 6 3 1 28 25 54 56 62
15 4 14 5 -7 6 -19 1 -33 -7 -44 -23z"/>
<path d="M2980 920 c0 -35 -28 -77 -59 -90 -29 -12 -40 -11 -86 5 -13 4 -12 1
5 -9 64 -39 150 6 150 78 0 20 -2 36 -5 36 -3 0 -5 -9 -5 -20z"/>
<path d="M3010 560 c-20 -6 -21 -8 -5 -8 11 0 29 3 40 8 25 11 -1 11 -35 0z"/>
<path d="M2038 543 c7 -3 16 -2 19 1 4 3 -2 6 -13 5 -11 0 -14 -3 -6 -6z"/>
<path d="M2958 543 c7 -3 16 -2 19 1 4 3 -2 6 -13 5 -11 0 -14 -3 -6 -6z"/>
<path d="M2845 525 c-36 -8 -48 -13 -30 -13 17 0 53 6 80 13 64 16 28 16 -50
0z"/>
<path d="M2128 523 c6 -2 18 -2 25 0 6 3 1 5 -13 5 -14 0 -19 -2 -12 -5z"/>
<path d="M2188 513 c6 -2 18 -2 25 0 6 3 1 5 -13 5 -14 0 -19 -2 -12 -5z"/>
<path d="M2258 503 c12 -2 30 -2 40 0 9 3 -1 5 -23 4 -22 0 -30 -2 -17 -4z"/>
<path d="M2718 503 c12 -2 32 -2 45 0 12 2 2 4 -23 4 -25 0 -35 -2 -22 -4z"/>
<path d="M2422 493 c48 -2 129 -2 180 0 51 1 12 3 -87 3 -99 0 -141 -2 -93 -3z"/>
</g>
</svg>
